<svg width="13" height="12" viewBox="0 0 13 12" fill="none" xmlns="http://www.w3.org/2000/svg">
<path d="M7.41501 5.5L11.71 1.47343C11.8976 1.29752 12.0031 1.05893 12.0031 0.810152C12.0031 0.561374 11.8976 0.322784 11.71 0.146871C11.5224 -0.0290418 11.2679 -0.127869 11.0025 -0.127869C10.7371 -0.127869 10.4827 -0.0290418 10.295 0.146871L6.00001 4.17343L1.70501 0.151559C1.51371 -0.00202827 1.26763 -0.082284 1.01596 -0.0731704C0.76428 -0.0640568 0.52554 0.0337546 0.347446 0.200718C0.169351 0.367682 0.0650192 0.5915 0.0552981 0.827446C0.0455769 1.06339 0.131183 1.29409 0.295009 1.47343L4.58501 5.5L0.295009 9.52656C0.107369 9.70247 0.00195313 9.94106 0.00195312 10.1898C0.00195312 10.4386 0.107369 10.6772 0.295009 10.8531C0.48265 11.029 0.737145 11.1279 1.00251 11.1279C1.26787 11.1279 1.52237 11.029 1.71001 10.8531L6.00001 6.82656L10.295 10.8531C10.4827 11.029 10.7371 11.1279 11.0025 11.1279C11.2679 11.1279 11.5224 11.029 11.71 10.8531C11.8976 10.6772 12.0031 10.4386 12.0031 10.1898C12.0031 9.94106 11.8976 9.70247 11.71 9.52656L7.41501 5.5Z" fill="white"/>
</svg>
