<svg width="254" height="79" viewBox="0 0 254 79" fill="none" xmlns="http://www.w3.org/2000/svg">
<path d="M17.1999 31.474C19.71 27.1573 23.5538 23.7724 28.1531 21.8281C36.5383 18.2835 46.2241 20.005 52.8742 26.222L71.9048 44.0132C72.999 45.0361 73.8019 46.3313 74.2315 47.7663C75.6979 52.6641 72.5178 57.7332 67.4699 58.5443L33.6599 63.9767C26.0631 65.1973 18.4933 61.6435 14.5795 55.019C11.134 49.1871 11.1089 41.9485 14.514 36.0929L17.1999 31.474Z" fill="url(#paint0_linear)"/>
<path d="M30.5624 36.4957C32.2504 33.5777 34.8406 31.2872 37.9431 29.9688C43.6191 27.5569 50.184 28.7262 54.6781 32.9496L67.5506 45.0465C68.2926 45.7438 68.8366 46.6252 69.1272 47.601C70.1199 50.9341 67.9564 54.3805 64.5231 54.935L41.7472 58.6136C36.5717 59.4495 31.4135 57.0233 28.7571 52.5035C26.4353 48.5532 26.4184 43.6592 28.7128 39.6929L30.5624 36.4957Z" fill="white"/>
<path d="M39.4684 41.5476C40.5576 39.7029 42.2152 38.2609 44.1929 37.4375C47.7621 35.9516 51.8695 36.6771 54.7138 39.2957L62.8319 46.7701C63.2953 47.1966 63.6362 47.7393 63.8193 48.3419C64.4433 50.3943 63.1095 52.5246 60.9908 52.8599L46.3968 55.1692C43.224 55.6712 40.0641 54.1962 38.4116 51.4415C36.9255 48.9643 36.9147 45.8724 38.3835 43.3849L39.4684 41.5476Z" fill="url(#paint1_linear)"/>
<path d="M105.93 56.5859V34.6133L108.713 33.2949H108.859V43.6074H117.502V34.6133L120.285 33.2949H120.432V55.2676L117.648 56.5859H117.502V46.2734H108.859V55.2676L106.076 56.5859H105.93ZM128.911 36.6494C128.569 36.2979 128.398 35.8779 128.398 35.3896C128.398 34.8916 128.569 34.4668 128.911 34.1152C129.253 33.7637 129.668 33.5879 130.156 33.5879C130.644 33.5879 131.059 33.7637 131.401 34.1152C131.743 34.4668 131.914 34.8916 131.914 35.3896C131.914 35.8779 131.743 36.2979 131.401 36.6494C131.059 37.001 130.644 37.1768 130.156 37.1768C129.668 37.1768 129.253 37.001 128.911 36.6494ZM128.691 56.5859V40.6191L131.474 39.3008H131.621V55.2676L128.837 56.5859H128.691ZM139.88 56.5859V40.9121C139.88 38.8027 140.539 37.0693 141.858 35.7119C143.244 34.2959 145.051 33.5879 147.278 33.5879C149.289 33.5879 151.003 34.2959 152.419 35.7119C152.771 36.0635 153.034 36.4053 153.21 36.7373C153.435 36.3955 153.708 36.0684 154.03 35.7559C155.505 34.3105 157.209 33.5879 159.143 33.5879C161.33 33.5879 163.137 34.2959 164.563 35.7119C165.881 37.0205 166.54 38.7539 166.54 40.9121V55.2676L163.757 56.5859H163.611V40.9121C163.611 39.6035 163.259 38.5439 162.556 37.7334C161.687 36.7275 160.549 36.2246 159.143 36.2246C157.737 36.2246 156.599 36.7275 155.73 37.7334C155.027 38.5439 154.675 39.6035 154.675 40.9121V55.2676L151.892 56.5859H151.745V40.9121C151.745 39.6035 151.394 38.5439 150.691 37.7334C149.821 36.7275 148.684 36.2246 147.278 36.2246C145.871 36.2246 144.734 36.7275 143.864 37.7334C143.161 38.5439 142.81 39.6035 142.81 40.9121V55.2676L140.027 56.5859H139.88ZM174.067 50.4336V45.4531C174.067 43.8418 174.673 42.4404 175.884 41.249C177.016 40.1455 178.437 39.5938 180.146 39.5938C181.836 39.5938 183.257 40.1455 184.409 41.249C185.62 42.4209 186.225 43.8223 186.225 45.4531V50.4336C186.225 52.0449 185.62 53.4463 184.409 54.6377C183.276 55.7412 181.855 56.293 180.146 56.293C178.457 56.293 177.036 55.7412 175.884 54.6377C174.673 53.4658 174.067 52.0645 174.067 50.4336ZM176.997 50.4336C176.997 51.5566 177.3 52.3818 177.905 52.9092C178.52 53.4268 179.267 53.6855 180.146 53.6855C181.025 53.6855 181.767 53.4268 182.373 52.9092C182.988 52.3818 183.296 51.5566 183.296 50.4336V45.4531C183.296 44.3301 182.988 43.5098 182.373 42.9922C181.767 42.4648 181.025 42.2012 180.146 42.2012C179.267 42.2012 178.52 42.4648 177.905 42.9922C177.3 43.5098 176.997 44.3301 176.997 45.4531V50.4336ZM193.752 56.5859V34.6133L195.305 33.8809H200.857C203.083 33.8809 204.89 34.5889 206.277 36.0049C207.595 37.3525 208.254 39.0859 208.254 41.2051C208.254 43.334 207.595 45.0674 206.277 46.4053C205.496 47.1963 204.582 47.7676 203.537 48.1191L208.606 55.3701L206.028 56.5859H205.881L200.242 48.5293H196.682V55.2676L193.899 56.5859H193.752ZM196.682 45.8926H200.857C202.136 45.8926 203.274 45.3896 204.27 44.3838C204.973 43.6709 205.325 42.6113 205.325 41.2051C205.325 39.8965 204.973 38.8369 204.27 38.0264C203.401 37.0205 202.263 36.5176 200.857 36.5176H196.682V45.8926ZM216.133 56.5859V40.9121C216.133 38.8027 216.792 37.0693 218.11 35.7119C219.497 34.2959 221.304 33.5879 223.53 33.5879C225.728 33.5879 227.534 34.2959 228.95 35.7119C230.269 37.0205 230.928 38.7539 230.928 40.9121V55.2676L228.145 56.5859H227.998V40.9121C227.998 39.6035 227.646 38.5439 226.943 37.7334C226.074 36.7275 224.937 36.2246 223.53 36.2246C222.124 36.2246 220.986 36.7275 220.117 37.7334C219.414 38.5439 219.062 39.6035 219.062 40.9121V55.2676L216.279 56.5859H216.133ZM239.187 56.5859V40.9121C239.187 38.8027 239.846 37.0693 241.165 35.7119C242.551 34.2959 244.358 33.5879 246.585 33.5879C248.772 33.5879 250.579 34.2959 252.004 35.7119C253.323 37.0205 253.982 38.7539 253.982 40.9121V55.2676L251.199 56.5859H251.052V46.2734H242.117V55.2676L239.334 56.5859H239.187ZM242.117 43.6074H251.052V40.9121C251.052 39.6035 250.701 38.5439 249.998 37.7334C249.129 36.7275 247.991 36.2246 246.585 36.2246C245.178 36.2246 244.041 36.7275 243.171 37.7334C242.468 38.5439 242.117 39.6035 242.117 40.9121V43.6074Z" fill="url(#paint2_linear)"/>
<defs>
<linearGradient id="paint0_linear" x1="9" y1="28" x2="77" y2="54.5" gradientUnits="userSpaceOnUse">
<stop stop-color="#FE5C78"/>
<stop offset="1" stop-color="#35CAF9"/>
</linearGradient>
<linearGradient id="paint1_linear" x1="36" y1="35" x2="65" y2="56" gradientUnits="userSpaceOnUse">
<stop stop-color="#FE5C78"/>
<stop offset="1" stop-color="#35CAF9"/>
</linearGradient>
<linearGradient id="paint2_linear" x1="103" y1="27" x2="264" y2="56" gradientUnits="userSpaceOnUse">
<stop stop-color="#F39FB1"/>
<stop offset="1" stop-color="#44C1EF"/>
</linearGradient>
</defs>
</svg>
