<svg width="16" height="16" viewBox="0 0 16 16" fill="none" xmlns="http://www.w3.org/2000/svg">
<path d="M3.12309 15.208C2.90245 15.207 2.69119 15.1186 2.53565 14.9621L0.244191 12.6707C0.0878382 12.5143 0 12.3023 0 12.0812C0 11.86 0.0878382 11.648 0.244191 11.4916C0.400544 11.3353 0.612603 11.2474 0.83372 11.2474C1.05484 11.2474 1.2669 11.3353 1.42325 11.4916L3.12726 13.1956L8.57675 7.74614C8.7331 7.58979 8.94516 7.50195 9.16628 7.50195C9.3874 7.50195 9.59946 7.58979 9.75581 7.74614C9.91216 7.9025 10 8.11456 10 8.33567C10 8.55679 9.91216 8.76885 9.75581 8.9252L3.7147 14.9663C3.63684 15.0435 3.5445 15.1046 3.44298 15.1461C3.34146 15.1876 3.23275 15.2086 3.12309 15.208Z" fill="white"/>
</svg>
