<svg width="20" height="19" viewBox="0 0 20 19" fill="none" xmlns="http://www.w3.org/2000/svg">
<path d="M9.78121 13.1829L10.9728 11.9761C10.3815 11.9284 9.88274 11.8182 9.4766 11.6454C9.07643 11.4725 8.73001 11.2401 8.43734 10.9481C7.91175 10.4237 7.56234 9.84862 7.38913 9.22289C7.21592 8.5912 7.21592 7.96248 7.38913 7.33675C7.56234 6.71102 7.90876 6.13892 8.42839 5.62045L11.349 2.70632C11.8746 2.18786 12.451 1.84222 13.0781 1.66939C13.7053 1.49657 14.3324 1.49657 14.9596 1.66939C15.5867 1.83626 16.1631 2.1819 16.6887 2.70632C17.2083 3.22479 17.5547 3.79987 17.7279 4.43156C17.9011 5.05729 17.9011 5.68303 17.7279 6.30876C17.5547 6.93449 17.2083 7.50659 16.6887 8.02506L14.9327 9.77711C15.0581 10.0632 15.1358 10.3641 15.1656 10.68C15.2015 10.9958 15.1955 11.2997 15.1477 11.5917L17.7817 8.9726C18.4924 8.25747 18.9673 7.46786 19.2062 6.60375C19.451 5.73964 19.454 4.87553 19.2151 4.01143C18.9762 3.14136 18.4954 2.34578 17.7727 1.6247C17.044 0.897657 16.2437 0.414948 15.3717 0.176574C14.5056 -0.0618008 13.6396 -0.0588211 12.7735 0.185513C11.9075 0.423887 11.1161 0.900637 10.3994 1.61576L7.34434 4.67291C6.62761 5.38804 6.14681 6.17765 5.90192 7.04176C5.66302 7.90587 5.66302 8.77296 5.90192 9.64302C6.14083 10.5071 6.62462 11.2997 7.3533 12.0208C7.63401 12.3069 7.9655 12.5482 8.34775 12.7449C8.73001 12.9356 9.20783 13.0816 9.78121 13.1829ZM10.0052 5.81711L8.81363 7.02388C9.40493 7.07156 9.90066 7.18181 10.3008 7.35463C10.707 7.52745 11.0564 7.75987 11.349 8.05188C11.8687 8.5763 12.2151 9.15436 12.3883 9.78605C12.5615 10.4118 12.5615 11.0375 12.3883 11.6632C12.2211 12.289 11.8776 12.8611 11.358 13.3795L8.42839 16.2937C7.90876 16.8121 7.33538 17.1578 6.70824 17.3306C6.08111 17.5034 5.45098 17.5034 4.81788 17.3306C4.19074 17.1637 3.61736 16.8211 3.09773 16.3026C2.57811 15.7782 2.23169 15.2031 2.05848 14.5774C1.88527 13.9457 1.88527 13.317 2.05848 12.6912C2.23169 12.0655 2.57811 11.4934 3.09773 10.9749L4.85371 9.22289C4.72828 8.9428 4.64765 8.64483 4.61182 8.32899C4.58195 8.00718 4.59091 7.70027 4.63869 7.40826L2.00472 10.0274C1.29397 10.7425 0.816153 11.5321 0.571271 12.3963C0.332363 13.2604 0.332363 14.1274 0.571271 14.9975C0.81018 15.8616 1.29098 16.6542 2.01368 17.3753C2.74236 18.1023 3.53971 18.5851 4.40576 18.8234C5.27778 19.0618 6.14681 19.0588 7.01285 18.8145C7.8789 18.5761 8.66729 18.1023 9.37805 17.3932L12.4421 14.3271C13.1588 13.612 13.6366 12.8223 13.8755 11.9582C14.1204 11.0941 14.1234 10.23 13.8845 9.36591C13.6456 8.49585 13.1618 7.70027 12.4331 6.97919C12.1524 6.69314 11.8209 6.45476 11.4386 6.26407C11.0564 6.06741 10.5786 5.91842 10.0052 5.81711Z" fill="#44C1EF"/>
</svg>
