<?xml version="1.0"?>
<svg xmlns="http://www.w3.org/2000/svg" id="Layer_1" data-name="Layer 1" viewBox="0 0 512 512" width="512px" height="512px" class="hovered-paths"><g><title class="hovered-path active-path" style="">Add Photo</title><path d="M215.255,230.108a43.184,43.184,0,1,0-43.184-43.184A43.233,43.233,0,0,0,215.255,230.108Zm0-70.368a27.184,27.184,0,1,1-27.184,27.184A27.215,27.215,0,0,1,215.255,159.74Z" data-original="#000000" class="hovered-path active-path" fill="#A5A5A5"/><path d="M454,338H419V303a8,8,0,0,0-16,0v35H369a8,8,0,0,0,0,16h34v34a8,8,0,0,0,16,0V354h35a8,8,0,0,0,0-16Z" data-original="#000000" class="hovered-path active-path" fill="#A5A5A5"/><path d="M472,273.129V121.724C472,95.256,450.209,74,423.741,74H54.753A47.608,47.608,0,0,0,7,121.724V362.829C7,389.3,28.286,411,54.753,411H345.639a93.6,93.6,0,0,0,159.737-66.176C505.376,316.084,492,290.293,472,273.129ZM54.753,90H423.741C441.386,90,456,104.079,456,121.724V262.3a93.081,93.081,0,0,0-44.119-11.016,95.1,95.1,0,0,0-10.46.581L334.4,204.411a8.021,8.021,0,0,0-10.249.822L233.827,294,128.85,242.84a7.764,7.764,0,0,0-7.4.271L23,300.284V121.724A31.591,31.591,0,0,1,54.753,90ZM23,362.829V318.781L125.791,259.09l95.983,46.894L131.231,395H54.753A31.973,31.973,0,0,1,23,362.829ZM154.057,395,330.578,221.42l49.888,35.3a93.737,93.737,0,0,0-62.21,88.17c0,18.4,5.344,35.112,14.557,50.112Zm257.694,27.276a77.5,77.5,0,1,1,77.5-77.495A77.583,77.583,0,0,1,411.751,422.276Z" data-original="#000000" class="hovered-path active-path" fill="#A5A5A5"/></g> </svg>
