<?xml version="1.0" encoding="iso-8859-1"?>
<!-- Generator: Adobe Illustrator 19.0.0, SVG Export Plug-In . SVG Version: 6.00 Build 0)  -->
<svg version="1.1" id="Capa_1" xmlns="http://www.w3.org/2000/svg" xmlns:xlink="http://www.w3.org/1999/xlink" x="0px" y="0px"
	 viewBox="0 0 512 512" style="enable-background:new 0 0 512 512;" xml:space="preserve">
<path style="fill:#C9C6CA;" d="M487.227,231.226C487.227,358.928,356.339,512,256,512S24.774,358.928,24.774,231.226
	S128.298,0,256,0S487.227,103.523,487.227,231.226z"/>
<path style="fill:#6E5A64;" d="M256,423.226c-19.46,0-37.282-7.234-48.887-19.847c-3.863-4.202-3.589-10.726,0.605-14.589
	c4.194-3.847,10.734-3.589,14.589,0.605c7.597,8.258,20.194,13.185,33.694,13.185s26.097-4.927,33.694-13.185
	c3.855-4.194,10.403-4.452,14.589-0.605c4.194,3.863,4.468,10.387,0.605,14.589C293.283,415.992,275.46,423.226,256,423.226z"/>
<path style="fill:#B7B2B8;" d="M305.548,495.484c-100.338,0-231.226-161.33-231.226-289.032c0-80.667,41.334-151.65,103.951-193.022
	c-89.459,31.93-153.5,117.368-153.5,217.796C24.774,358.928,155.662,512,256,512c20.459,0,42.186-6.45,63.817-17.665
	C315.011,495.02,310.237,495.484,305.548,495.484z"/>
<path style="fill:#6E5A64;" d="M172.464,337.709L172.464,337.709c-31.589,4.625-60.946-17.233-65.571-48.822l-7.178-49.026
	c-4.625-31.589,17.233-60.946,48.822-65.571l0,0c31.589-4.625,60.946,17.233,65.571,48.822l7.178,49.026
	C225.911,303.727,204.053,333.084,172.464,337.709z"/>
<path style="fill:#5A4650;" d="M194.584,317.778c-31.589,4.625-60.946-17.233-65.571-48.822l-11.653-79.585
	c-13.292,12.505-20.49,31.063-17.646,50.49l7.178,49.026c4.625,31.589,33.983,53.447,65.571,48.822
	c17.081-2.501,31.267-12.267,40.009-25.673C206.996,314.832,201.006,316.838,194.584,317.778z"/>
<path style="fill:#6E5A64;" d="M339.536,337.709L339.536,337.709c-31.589-4.625-53.447-33.982-48.822-65.571l7.178-49.026
	c4.625-31.589,33.982-53.447,65.571-48.822l0,0c31.589,4.625,53.447,33.982,48.822,65.571l-7.178,49.026
	C400.482,320.476,371.125,342.335,339.536,337.709z"/>
<path style="fill:#5A4650;" d="M366.442,324.957c-31.589-4.625-53.447-33.983-48.822-65.571l11.653-79.585
	c-16.319,8.17-28.535,23.885-31.38,43.312l-7.178,49.026c-4.625,31.589,17.233,60.946,48.822,65.571
	c17.081,2.501,33.471-2.788,45.69-13.125C379.178,325.692,372.865,325.897,366.442,324.957z"/>
<g>
</g>
<g>
</g>
<g>
</g>
<g>
</g>
<g>
</g>
<g>
</g>
<g>
</g>
<g>
</g>
<g>
</g>
<g>
</g>
<g>
</g>
<g>
</g>
<g>
</g>
<g>
</g>
<g>
</g>
</svg>
