<?xml version="1.0" encoding="iso-8859-1"?>
<!-- Generator: Adobe Illustrator 19.0.0, SVG Export Plug-In . SVG Version: 6.00 Build 0)  -->
<svg version="1.1" id="Capa_1" xmlns="http://www.w3.org/2000/svg" xmlns:xlink="http://www.w3.org/1999/xlink" x="0px" y="0px"
	 viewBox="0 0 512 512" style="enable-background:new 0 0 512 512;" xml:space="preserve">
<path style="fill:#6E5A64;" d="M499.613,268.387c0,15.997-9.611,30.841-12.602,45.96c-3.082,15.58,0.059,32.961-5.886,47.296
	c-6.048,14.584-20.619,24.626-29.298,37.589c-8.745,13.062-12.496,30.345-23.57,41.419c-11.075,11.074-28.358,14.824-41.419,23.568
	c-12.962,8.677-23.003,23.248-37.586,29.294c-14.334,5.944-31.712,2.802-47.291,5.884C286.84,502.389,271.997,512,256,512
	s-30.841-9.611-45.96-12.602c-15.58-3.082-32.961,0.059-47.296-5.886c-14.584-6.048-24.626-20.619-37.589-29.298
	c-13.062-8.745-30.345-12.496-41.419-23.57s-14.824-28.358-23.568-41.419c-8.677-12.962-23.248-23.003-29.294-37.586
	c-5.944-14.334-2.802-31.712-5.884-47.291c-2.991-15.119-12.602-29.963-12.602-45.96s9.611-30.841,12.602-45.96
	c3.082-15.58-0.059-32.961,5.886-47.296c6.048-14.584,20.619-24.626,29.298-37.589c8.745-13.062,12.496-30.345,23.57-41.419
	C94.819,85.05,112.102,81.3,125.163,72.556c12.962-8.677,23.003-23.248,37.586-29.294c14.334-5.944,31.712-2.802,47.291-5.884
	c15.119-2.991,29.963-12.602,45.96-12.602s30.841,9.611,45.96,12.602c15.58,3.082,32.961-0.059,47.296,5.886
	c14.584,6.048,24.626,20.619,37.589,29.298c13.062,8.745,30.345,12.496,41.419,23.57c11.074,11.075,14.824,28.358,23.568,41.419
	c8.677,12.962,23.248,23.003,29.294,37.586c5.944,14.334,2.802,31.712,5.884,47.291C490.002,237.547,499.613,252.39,499.613,268.387
	z"/>
<path style="fill:#5A4650;" d="M449.291,400.219c-14.638,6.07-32.384,2.862-48.293,6.009c-15.44,3.054-30.597,12.869-46.933,12.869
	L125.603,72.23c-0.15,0.102-0.289,0.224-0.44,0.325c-13.061,8.744-30.345,12.493-41.419,23.568
	c-11.075,11.074-14.826,28.358-23.571,41.419c-8.679,12.963-23.25,23.005-29.298,37.589c-5.945,14.335-2.804,31.715-5.886,47.295
	c-2.991,15.12-12.602,29.963-12.602,45.961c0,15.997,9.611,30.84,12.602,45.96c3.082,15.579-0.06,32.958,5.884,47.291
	c6.047,14.582,20.617,24.624,29.294,37.586c8.744,13.061,12.494,30.345,23.568,41.419c11.075,11.075,28.358,14.826,41.419,23.571
	c12.963,8.678,23.006,23.25,37.589,29.298c14.335,5.945,31.715,2.804,47.296,5.886C225.159,502.389,240.003,512,256,512
	s30.84-9.611,45.96-12.602c15.579-3.082,32.957,0.06,47.291-5.884c14.582-6.047,24.624-20.617,37.586-29.294
	c13.061-8.744,30.345-12.494,41.419-23.568c11.075-11.074,14.826-28.357,23.571-41.419c0.103-0.154,0.228-0.297,0.333-0.45
	C451.206,399.267,450.283,399.807,449.291,400.219z"/>
<path style="fill:#E6646E;" d="M256,454.194L256,454.194c-91.216,0-165.161-73.945-165.161-165.161V181.677
	c0-36.486,29.578-66.065,66.065-66.065h198.194c36.486,0,66.065,29.578,66.065,66.065v107.355
	C421.161,380.248,347.216,454.194,256,454.194z"/>
<path style="fill:#5A4650;" d="M256,351.844c-27.415,0-53.016-4.869-74.89-13.307c-10.354-3.994-18.836,8.596-11.536,16.955
	c22.038,25.239,52.595,40.895,86.427,40.895s64.389-15.656,86.427-40.895c7.299-8.36-1.182-20.95-11.536-16.955
	C309.016,346.975,283.415,351.844,256,351.844z"/>
<g>
	<circle style="fill:#FFE17D;" cx="189.94" cy="247.74" r="41.29"/>
	<circle style="fill:#FFE17D;" cx="322.06" cy="247.74" r="41.29"/>
</g>
<g>
	<path style="fill:#5A4650;" d="M189.935,262.194c-5.702,0-10.323-4.621-10.323-10.323v-8.258c0-5.702,4.621-10.323,10.323-10.323
		s10.323,4.621,10.323,10.323v8.258C200.258,257.573,195.637,262.194,189.935,262.194z"/>
	<path style="fill:#5A4650;" d="M322.065,262.194c-5.702,0-10.323-4.621-10.323-10.323v-8.258c0-5.702,4.621-10.323,10.323-10.323
		s10.323,4.621,10.323,10.323v8.258C332.387,257.573,327.766,262.194,322.065,262.194z"/>
</g>
<g>
	<path style="fill:#DC4655;" d="M256,325.339c-6.379,0-12.758-1.855-18.323-5.565l-11.032-7.355
		c-3.798-2.532-4.823-7.653-2.29-11.452c2.524-3.79,7.637-4.823,11.452-2.29l11.032,7.355c5.565,3.71,12.758,3.71,18.323,0
		l11.032-7.355c3.798-2.532,8.919-1.5,11.452,2.29c2.532,3.798,1.508,8.919-2.29,11.452l-11.032,7.355
		C268.758,323.484,262.379,325.339,256,325.339z"/>
	<path style="fill:#DC4655;" d="M264.259,437.677L264.259,437.677c-72.973,0-132.13-59.156-132.13-132.129V120.46
		c-24.201,9.805-41.29,33.499-41.29,61.217v107.355c0,91.216,73.945,165.161,165.161,165.161c46.221,0,87.954-19.036,117.932-49.635
		C342.523,425.469,304.822,437.677,264.259,437.677z"/>
</g>
<path style="fill:#6E5A64;" d="M256,376.244c-29.038,0-56.348-5.385-80.62-14.71c21.465,21.61,49.627,34.853,80.62,34.853
	s59.155-13.243,80.62-34.853C312.348,370.859,285.038,376.244,256,376.244z"/>
<g>
	<path style="fill:#FFFFFF;" d="M313.367,389.527c3.073,2.424,7.52-0.205,6.876-4.066l-7.013-41.152
		c-14.969,4.117-31.309,6.479-48.382,7.144L313.367,389.527z"/>
	<path style="fill:#FFFFFF;" d="M198.851,344.328l-7.095,41.133c-0.644,3.861,3.803,6.49,6.876,4.066l48.908-38.057
		C230.355,350.83,213.914,348.463,198.851,344.328z"/>
</g>
<g>
	<path style="fill:#FFD164;" d="M180.788,110.225L102.876,6.341C99.882,2.349,95.184,0,90.194,0l0,0
		C78.543,0,70.873,12.148,75.882,22.667l55.829,117.241c8.089,16.986,30.019,21.794,44.472,9.75l0,0
		C187.97,139.835,189.995,122.499,180.788,110.225z"/>
	<path style="fill:#FFD164;" d="M331.212,110.225L409.124,6.341C412.118,2.349,416.816,0,421.806,0l0,0
		c11.651,0,19.321,12.148,14.312,22.667l-55.829,117.241c-8.089,16.986-30.019,21.794-44.472,9.75l0,0
		C324.03,139.835,322.005,122.499,331.212,110.225z"/>
</g>
<g>
	<path style="fill:#FFC350;" d="M149.751,133.045L86.617,0.466C77.069,2.651,71.41,13.277,75.882,22.667l55.829,117.24
		c7.62,16.003,27.454,21.003,41.82,11.479C163.609,149.454,154.561,143.147,149.751,133.045z"/>
	<path style="fill:#FFC350;" d="M356.323,154.81c-12.41-10.342-14.542-28.593-4.849-41.516l81.494-108.66
		C430.158,1.821,426.29,0,421.806,0c-4.99,0-9.689,2.349-12.681,6.341l-77.913,103.884c-9.206,12.275-7.181,29.61,4.606,39.433
		c6.54,5.45,14.589,7.285,22.216,6.268C357.475,155.52,356.862,155.26,356.323,154.81z"/>
</g>
<g>
</g>
<g>
</g>
<g>
</g>
<g>
</g>
<g>
</g>
<g>
</g>
<g>
</g>
<g>
</g>
<g>
</g>
<g>
</g>
<g>
</g>
<g>
</g>
<g>
</g>
<g>
</g>
<g>
</g>
</svg>
